{"title":"Fast 2011.DVDRiP.H264 (IPOD IPHONE PSP) - BRiNGiT","uid":6629480,"size":829941623,"categoryP":"video","categoryS":"handheld","magnet":"?xt=urn:btih:470b0ae7b9e7f02462f10f1ab8a0ce1cf867c5bc&amp;dn=Fast+2011.DVDRiP.H264+%28IPOD+IPHONE+PSP%29+-+BRiNGiT&amp;tr=udp%3A%2F%2Ftracker.openbittorrent.com%3A80&amp;tr=udp%3A%2F%2Fopen.demonii.com%3A1337&amp;tr=udp%3A%2F%2Ftracker.coppersurfer.tk%3A6969&amp;tr=udp%3A%2F%2Fexodus.desync.com%3A6969","seeders":0,"leechers":1,"uploader":"xtrillion","files":-1,"time":1314279147,"description":"                                Fast Five (2011)\n\n                             Action | Crime | Drama\n                                     130 min\n\n                                 \n                                   Storyline\n\n              \nDominic and his crew find themselves on the wrong side of the law once again as they try to switch lanes between a ruthless drug lord and a relentless federal agent.\n\n\nSUPPORTED DEVICES\n\nIPOD TOUCH 1G, 2G, 3G\n\nIPHONE 3G,4G\n\nSONY PSP \n\n-----------------------------------------------------------------------------------\n\nFormat                           : MPEG-4\nCodec ID                         : M4V \nFile size                        : 791 MiB\nDuration                         : 2h 4mn\nOverall bit rate                 : 885 Kbps\nMovie name                       : Video_Fast.Five.2011.DVDRiP.H264.550MB.mkv\nGenre                            : MyVideo\nWriting application              : DigiArty AV Encoder Core\n\n\nVideo\nID                               : 1\nFormat                           : MPEG-4 Visual\nFormat settings, BVOP            : No\nFormat settings, QPel            : No\nFormat settings, GMC             : No warppoints\nFormat settings, Matrix          : Default (H.263)\nCodec ID                         : 20\nDuration                         : 2h 4mn\nBit rate                         : 753 Kbps\nWidth                            : 320 pixels\nHeight                           : 240 pixels\nDisplay aspect ratio             : 4:3\nFrame rate mode                  : Constant\nFrame rate                       : 25.000 fps\nColor space                      : YUV\nChroma subsampling               : 4:2:0\nBit depth                        : 8 bits\nScan type                        : Progressive\nCompression mode                 : Lossy\nBits/(Pixel*Frame)               : 0.392\nStream size                      : 673 MiB (85%)\nWriting library                  : DigiArty AV Encoder Core\n\nAudio\nID                               : 2\nFormat                           : AAC\nFormat/Info                      : Advanced Audio Codec\nFormat profile                   : LC\nCodec ID                         : 40\nDuration                         : 2h 4mn\nBit rate mode                    : Variable\nBit rate                         : 128 Kbps\nChannel(s)                       : 2 channels\nChannel positions                : Front: L R\nSampling rate                    : 44.1 KHz\nCompression mode                 : Lossy\nStream size                      : 114 MiB (14%)\n\n-------------------------------------------------------------------------------\nBROUGHT TO YOU BY BRiNGiT","torrent":{"xt":"urn:btih:470b0ae7b9e7f02462f10f1ab8a0ce1cf867c5bc","amp;dn":"Fast+2011.DVDRiP.H264+%28IPOD+IPHONE+PSP%29+-+BRiNGiT","amp;tr":["udp%3A%2F%2Ftracker.openbittorrent.com%3A80","udp%3A%2F%2Fopen.demonii.com%3A1337","udp%3A%2F%2Ftracker.coppersurfer.tk%3A6969","udp%3A%2F%2Fexodus.desync.com%3A6969"],"infoHash":"470b0ae7b9e7f02462f10f1ab8a0ce1cf867c5bc","infoHashBuffer":{"type":"Buffer","data":[71,11,10,231,185,231,240,36,98,241,15,26,184,160,206,28,248,103,197,188]},"announce":[],"urlList":[]}}